G04 #@! TF.FileFunction,Copper,L1,Top,Signal*
%FSLAX46Y46*%
G04 Gerber Fmt 4.6, Leading zero omitted, Abs format (unit mm)*
G04 Created by KiCad (PCBNEW 4.0.7) date Monday, October 29, 2018 'AMt' 12:55:44 AM*
%MOMM*%
%LPD*%
G01*
G04 APERTURE LIST*
%ADD10C,0.100000*%
%ADD11C,0.010000*%
%ADD12C,1.800000*%
%ADD13C,1.600000*%
%ADD14O,1.600000X1.600000*%
%ADD15C,1.700000*%
%ADD16O,1.700000X1.700000*%
%ADD17C,0.250000*%
G04 APERTURE END LIST*
D10*
D11*
G36*
X145001300Y-136350375D02*
X145068457Y-136454426D01*
X145185737Y-136644500D01*
X145338873Y-136897152D01*
X145513594Y-137188938D01*
X145591639Y-137320315D01*
X146089534Y-138114714D01*
X146609670Y-138847970D01*
X147177690Y-139552742D01*
X147819233Y-140261689D01*
X148236237Y-140688776D01*
X149123078Y-141528033D01*
X150001177Y-142260595D01*
X150891464Y-142903252D01*
X151407295Y-143232659D01*
X152017863Y-143605250D01*
X152018431Y-145684875D01*
X152019000Y-147764500D01*
X147764500Y-147764500D01*
X147764500Y-143637000D01*
X140525500Y-143637000D01*
X140525500Y-151828500D01*
X139588875Y-151826014D01*
X139132184Y-151818971D01*
X138793555Y-151800154D01*
X138564538Y-151768902D01*
X138461750Y-151737872D01*
X138362239Y-151668495D01*
X138190290Y-151522234D01*
X137961647Y-151313601D01*
X137692054Y-151057106D01*
X137397254Y-150767260D01*
X137271125Y-150640501D01*
X136271000Y-149628788D01*
X136271000Y-136207500D01*
X144901071Y-136207500D01*
X145001300Y-136350375D01*
X145001300Y-136350375D01*
G37*
X145001300Y-136350375D02*
X145068457Y-136454426D01*
X145185737Y-136644500D01*
X145338873Y-136897152D01*
X145513594Y-137188938D01*
X145591639Y-137320315D01*
X146089534Y-138114714D01*
X146609670Y-138847970D01*
X147177690Y-139552742D01*
X147819233Y-140261689D01*
X148236237Y-140688776D01*
X149123078Y-141528033D01*
X150001177Y-142260595D01*
X150891464Y-142903252D01*
X151407295Y-143232659D01*
X152017863Y-143605250D01*
X152018431Y-145684875D01*
X152019000Y-147764500D01*
X147764500Y-147764500D01*
X147764500Y-143637000D01*
X140525500Y-143637000D01*
X140525500Y-151828500D01*
X139588875Y-151826014D01*
X139132184Y-151818971D01*
X138793555Y-151800154D01*
X138564538Y-151768902D01*
X138461750Y-151737872D01*
X138362239Y-151668495D01*
X138190290Y-151522234D01*
X137961647Y-151313601D01*
X137692054Y-151057106D01*
X137397254Y-150767260D01*
X137271125Y-150640501D01*
X136271000Y-149628788D01*
X136271000Y-136207500D01*
X144901071Y-136207500D01*
X145001300Y-136350375D01*
G36*
X183769000Y-149313012D02*
X182516965Y-150570756D01*
X181264931Y-151828500D01*
X168275000Y-151828500D01*
X168275000Y-148022633D01*
X168275953Y-147310260D01*
X168278707Y-146640808D01*
X168283105Y-146025044D01*
X168288988Y-145473736D01*
X168296200Y-144997651D01*
X168304581Y-144607556D01*
X168313974Y-144314219D01*
X168324221Y-144128406D01*
X168333024Y-144064150D01*
X168428404Y-143945639D01*
X168637064Y-143786822D01*
X168953357Y-143591946D01*
X168983899Y-143574494D01*
X170272778Y-142772955D01*
X171469386Y-141885496D01*
X172576413Y-140909438D01*
X173596546Y-139842099D01*
X174532472Y-138680800D01*
X175386881Y-137422861D01*
X175735125Y-136842500D01*
X176120321Y-136175750D01*
X179944660Y-136159379D01*
X183769000Y-136143008D01*
X183769000Y-149313012D01*
X183769000Y-149313012D01*
G37*
X183769000Y-149313012D02*
X182516965Y-150570756D01*
X181264931Y-151828500D01*
X168275000Y-151828500D01*
X168275000Y-148022633D01*
X168275953Y-147310260D01*
X168278707Y-146640808D01*
X168283105Y-146025044D01*
X168288988Y-145473736D01*
X168296200Y-144997651D01*
X168304581Y-144607556D01*
X168313974Y-144314219D01*
X168324221Y-144128406D01*
X168333024Y-144064150D01*
X168428404Y-143945639D01*
X168637064Y-143786822D01*
X168953357Y-143591946D01*
X168983899Y-143574494D01*
X170272778Y-142772955D01*
X171469386Y-141885496D01*
X172576413Y-140909438D01*
X173596546Y-139842099D01*
X174532472Y-138680800D01*
X175386881Y-137422861D01*
X175735125Y-136842500D01*
X176120321Y-136175750D01*
X179944660Y-136159379D01*
X183769000Y-136143008D01*
X183769000Y-149313012D01*
G36*
X166243000Y-107159403D02*
X166242238Y-107805732D01*
X166239685Y-108336706D01*
X166234938Y-108763963D01*
X166227593Y-109099143D01*
X166217247Y-109353882D01*
X166203496Y-109539818D01*
X166185938Y-109668590D01*
X166164169Y-109751836D01*
X166152245Y-109778778D01*
X166074622Y-109885558D01*
X165925176Y-110058616D01*
X165723623Y-110276198D01*
X165489679Y-110516551D01*
X165425594Y-110580472D01*
X164789698Y-111210695D01*
X163754224Y-111009406D01*
X163019492Y-110874078D01*
X162394658Y-110775571D01*
X161868532Y-110712400D01*
X161429928Y-110683081D01*
X161275790Y-110680500D01*
X160909000Y-110680500D01*
X160909000Y-118164361D01*
X161274125Y-118204545D01*
X162454621Y-118392599D01*
X163570471Y-118689682D01*
X164621206Y-119095559D01*
X165606359Y-119609997D01*
X166525462Y-120232761D01*
X167378048Y-120963617D01*
X167935491Y-121539919D01*
X168592265Y-122338911D01*
X169141535Y-123158335D01*
X169592047Y-124016696D01*
X169952546Y-124932497D01*
X170231776Y-125924241D01*
X170396012Y-126746000D01*
X170530425Y-127539750D01*
X174196962Y-127556140D01*
X177863500Y-127572531D01*
X177861499Y-127397390D01*
X177852458Y-127283300D01*
X177828355Y-127065072D01*
X177791836Y-126764326D01*
X177745550Y-126402684D01*
X177692145Y-126001768D01*
X177676733Y-125888750D01*
X177616423Y-125444148D01*
X177573142Y-125106930D01*
X177545968Y-124858758D01*
X177533978Y-124681289D01*
X177536251Y-124556185D01*
X177551864Y-124465105D01*
X177579895Y-124389709D01*
X177599359Y-124350056D01*
X177673872Y-124231270D01*
X177810910Y-124036063D01*
X177993325Y-123786913D01*
X178203972Y-123506300D01*
X178425702Y-123216702D01*
X178641370Y-122940601D01*
X178833829Y-122700474D01*
X178985932Y-122518801D01*
X179051238Y-122446637D01*
X179191227Y-122301000D01*
X183832500Y-122301000D01*
X183832500Y-134112000D01*
X178924588Y-134112000D01*
X178264631Y-133462567D01*
X178026106Y-133220595D01*
X177820724Y-132998565D01*
X177666022Y-132816480D01*
X177579535Y-132694339D01*
X177568351Y-132668411D01*
X177568256Y-132563949D01*
X177588949Y-132355823D01*
X177627566Y-132065147D01*
X177681244Y-131713037D01*
X177747120Y-131320605D01*
X177764257Y-131223721D01*
X177838654Y-130790845D01*
X177907228Y-130361266D01*
X177965577Y-129964961D01*
X178009298Y-129631905D01*
X178033988Y-129392074D01*
X178034675Y-129382627D01*
X178072863Y-128841499D01*
X174316931Y-128841499D01*
X173639315Y-128842281D01*
X173000941Y-128844534D01*
X172412866Y-128848116D01*
X171886150Y-128852888D01*
X171431851Y-128858710D01*
X171061029Y-128865441D01*
X170784742Y-128872942D01*
X170614049Y-128881072D01*
X170559760Y-128889125D01*
X170544768Y-129067781D01*
X170509875Y-129336918D01*
X170460667Y-129662602D01*
X170402733Y-130010896D01*
X170341661Y-130347867D01*
X170283038Y-130639580D01*
X170243238Y-130811399D01*
X169914527Y-131848116D01*
X169468735Y-132853700D01*
X168914760Y-133813100D01*
X168261496Y-134711265D01*
X167517842Y-135533144D01*
X167364136Y-135682214D01*
X166521898Y-136399559D01*
X165613963Y-137019078D01*
X164652741Y-137534926D01*
X163650641Y-137941260D01*
X162620073Y-138232239D01*
X161591625Y-138400143D01*
X161163000Y-138444795D01*
X161163000Y-145873267D01*
X161305875Y-145841265D01*
X161408643Y-145822886D01*
X161616841Y-145789244D01*
X161910241Y-145743477D01*
X162268611Y-145688725D01*
X162671723Y-145628126D01*
X162859406Y-145600219D01*
X164270062Y-145391175D01*
X164669156Y-145702042D01*
X164883097Y-145867994D01*
X165160153Y-146081918D01*
X165462530Y-146314673D01*
X165719125Y-146511605D01*
X166370000Y-147010300D01*
X166370000Y-151765000D01*
X163512500Y-151765000D01*
X163512500Y-146367500D01*
X155162250Y-146365584D01*
X155684994Y-145851374D01*
X155921591Y-145623864D01*
X156090821Y-145476472D01*
X156211367Y-145395913D01*
X156301916Y-145368904D01*
X156355967Y-145374367D01*
X156571535Y-145422082D01*
X156883871Y-145482871D01*
X157265365Y-145552154D01*
X157688408Y-145625351D01*
X158125392Y-145697881D01*
X158548708Y-145765165D01*
X158930746Y-145822621D01*
X159243898Y-145865671D01*
X159460554Y-145889733D01*
X159464375Y-145890042D01*
X160020000Y-145934400D01*
X160020000Y-138366500D01*
X159772310Y-138366500D01*
X159501889Y-138348865D01*
X159143057Y-138300313D01*
X158728753Y-138227371D01*
X158291920Y-138136566D01*
X157865499Y-138034426D01*
X157482432Y-137927479D01*
X157359451Y-137888384D01*
X156312769Y-137475441D01*
X155325018Y-136950380D01*
X154399635Y-136315316D01*
X153540056Y-135572366D01*
X153442692Y-135477250D01*
X152665834Y-134625775D01*
X152004518Y-133722186D01*
X151457432Y-132763859D01*
X151023263Y-131748171D01*
X150700699Y-130672500D01*
X150495739Y-129587625D01*
X150418382Y-129031999D01*
X146707313Y-129032000D01*
X142996245Y-129032000D01*
X143031499Y-129238375D01*
X143051330Y-129363165D01*
X143086093Y-129590945D01*
X143132385Y-129899035D01*
X143186801Y-130264756D01*
X143245938Y-130665426D01*
X143256826Y-130739547D01*
X143321186Y-131186740D01*
X143366301Y-131526273D01*
X143393463Y-131775816D01*
X143403964Y-131953039D01*
X143399096Y-132075610D01*
X143380152Y-132161198D01*
X143363632Y-132200047D01*
X143295813Y-132307120D01*
X143165119Y-132491218D01*
X142988340Y-132730461D01*
X142782265Y-133002966D01*
X142563683Y-133286853D01*
X142349384Y-133560239D01*
X142156156Y-133801243D01*
X142000789Y-133987983D01*
X141933191Y-134064375D01*
X141771739Y-134239000D01*
X136271000Y-134239000D01*
X136258300Y-128587500D01*
X136256379Y-127745902D01*
X136254476Y-126936917D01*
X136252617Y-126170068D01*
X136250826Y-125454880D01*
X136249131Y-124800878D01*
X136247555Y-124217586D01*
X136246126Y-123714530D01*
X136244868Y-123301233D01*
X136243808Y-122987220D01*
X136242971Y-122782016D01*
X136242425Y-122697875D01*
X136239250Y-122459750D01*
X141931082Y-122426686D01*
X142599179Y-123046468D01*
X142846849Y-123281837D01*
X143065260Y-123499847D01*
X143234730Y-123680086D01*
X143335576Y-123802139D01*
X143349843Y-123825000D01*
X143384249Y-123915917D01*
X143393697Y-124029763D01*
X143376030Y-124194462D01*
X143329089Y-124437941D01*
X143288108Y-124624010D01*
X143177142Y-125174415D01*
X143072852Y-125799361D01*
X142983019Y-126446396D01*
X142915422Y-127063066D01*
X142900338Y-127238125D01*
X142858601Y-127762000D01*
X146615293Y-127762000D01*
X147433435Y-127761467D01*
X148132531Y-127759758D01*
X148720534Y-127756705D01*
X149205395Y-127752141D01*
X149595063Y-127745900D01*
X149897491Y-127737814D01*
X150120630Y-127727717D01*
X150272430Y-127715441D01*
X150360843Y-127700819D01*
X150393820Y-127683685D01*
X150394195Y-127682625D01*
X150410583Y-127588471D01*
X150436639Y-127399618D01*
X150468159Y-127147606D01*
X150483836Y-127014137D01*
X153607329Y-127014137D01*
X153640660Y-127354802D01*
X153745006Y-127696086D01*
X153926499Y-128065861D01*
X154191274Y-128492000D01*
X154246591Y-128574390D01*
X154549482Y-129008562D01*
X154863305Y-129429724D01*
X155205427Y-129859213D01*
X155593214Y-130318365D01*
X156044033Y-130828518D01*
X156402152Y-131222750D01*
X156697279Y-131539480D01*
X157034643Y-131892464D01*
X157403878Y-132271636D01*
X157794623Y-132666932D01*
X158196512Y-133068284D01*
X158599181Y-133465629D01*
X158992267Y-133848900D01*
X159365405Y-134208032D01*
X159708232Y-134532959D01*
X160010383Y-134813617D01*
X160261495Y-135039939D01*
X160451204Y-135201860D01*
X160569144Y-135289315D01*
X160602003Y-135301623D01*
X160657394Y-135255864D01*
X160792962Y-135133960D01*
X160996639Y-134947057D01*
X161256357Y-134706304D01*
X161560048Y-134422847D01*
X161895643Y-134107833D01*
X161958656Y-134048500D01*
X162783658Y-133257650D01*
X163562076Y-132484239D01*
X164287592Y-131735478D01*
X164953890Y-131018579D01*
X165554649Y-130340754D01*
X166083554Y-129709215D01*
X166534286Y-129131176D01*
X166900528Y-128613846D01*
X167175961Y-128164440D01*
X167267956Y-127987608D01*
X167392290Y-127717958D01*
X167466084Y-127509860D01*
X167501821Y-127314608D01*
X167511983Y-127083495D01*
X167512061Y-127035108D01*
X167452406Y-126369022D01*
X167281394Y-125751525D01*
X167006635Y-125192598D01*
X166635739Y-124702220D01*
X166176314Y-124290369D01*
X165635972Y-123967023D01*
X165022322Y-123742164D01*
X164995584Y-123735159D01*
X164635076Y-123671918D01*
X164202962Y-123641092D01*
X163749940Y-123642798D01*
X163326707Y-123677150D01*
X163033716Y-123730704D01*
X162507315Y-123900396D01*
X162034383Y-124135360D01*
X161584236Y-124454044D01*
X161126196Y-124874893D01*
X161119721Y-124881457D01*
X160536692Y-125473106D01*
X160300564Y-125151435D01*
X159858739Y-124654436D01*
X159335484Y-124249496D01*
X158742318Y-123942134D01*
X158090763Y-123737872D01*
X157392339Y-123642228D01*
X157136467Y-123635438D01*
X156427289Y-123689964D01*
X155787400Y-123849247D01*
X155220517Y-124110465D01*
X154730352Y-124470798D01*
X154320620Y-124927426D01*
X153995036Y-125477526D01*
X153757313Y-126118279D01*
X153729172Y-126223168D01*
X153638878Y-126646217D01*
X153607329Y-127014137D01*
X150483836Y-127014137D01*
X150488241Y-126976645D01*
X150674537Y-125905065D01*
X150983692Y-124853544D01*
X151411975Y-123831975D01*
X151955651Y-122850247D01*
X152168867Y-122523250D01*
X152445450Y-122154236D01*
X152800556Y-121738544D01*
X153208390Y-121301930D01*
X153643156Y-120870148D01*
X154079057Y-120468954D01*
X154490298Y-120124103D01*
X154802958Y-119893324D01*
X155557149Y-119431349D01*
X156361854Y-119025469D01*
X157166235Y-118700823D01*
X157319744Y-118648789D01*
X157678770Y-118540694D01*
X158079877Y-118435496D01*
X158492251Y-118339770D01*
X158885079Y-118260091D01*
X159227548Y-118203036D01*
X159488846Y-118175180D01*
X159546973Y-118173500D01*
X159766000Y-118173500D01*
X159766000Y-114490500D01*
X159765822Y-113713089D01*
X159765098Y-113053107D01*
X159763539Y-112500980D01*
X159760855Y-112047136D01*
X159756759Y-111682003D01*
X159750962Y-111396009D01*
X159743175Y-111179581D01*
X159733109Y-111023148D01*
X159720476Y-110917138D01*
X159704987Y-110851977D01*
X159686354Y-110818095D01*
X159664288Y-110805918D01*
X159654875Y-110804989D01*
X159561552Y-110811869D01*
X159361968Y-110832530D01*
X159075847Y-110864727D01*
X158722912Y-110906215D01*
X158322886Y-110954746D01*
X158130975Y-110978508D01*
X157667533Y-111035387D01*
X157312972Y-111076151D01*
X157050316Y-111101686D01*
X156862591Y-111112880D01*
X156732819Y-111110621D01*
X156644027Y-111095794D01*
X156579237Y-111069286D01*
X156563905Y-111060393D01*
X156465084Y-110992067D01*
X156285357Y-110860109D01*
X156043988Y-110678963D01*
X155760236Y-110463074D01*
X155484304Y-110250821D01*
X154559000Y-109535393D01*
X154559000Y-104711500D01*
X166243000Y-104711500D01*
X166243000Y-107159403D01*
X166243000Y-107159403D01*
G37*
X166243000Y-107159403D02*
X166242238Y-107805732D01*
X166239685Y-108336706D01*
X166234938Y-108763963D01*
X166227593Y-109099143D01*
X166217247Y-109353882D01*
X166203496Y-109539818D01*
X166185938Y-109668590D01*
X166164169Y-109751836D01*
X166152245Y-109778778D01*
X166074622Y-109885558D01*
X165925176Y-110058616D01*
X165723623Y-110276198D01*
X165489679Y-110516551D01*
X165425594Y-110580472D01*
X164789698Y-111210695D01*
X163754224Y-111009406D01*
X163019492Y-110874078D01*
X162394658Y-110775571D01*
X161868532Y-110712400D01*
X161429928Y-110683081D01*
X161275790Y-110680500D01*
X160909000Y-110680500D01*
X160909000Y-118164361D01*
X161274125Y-118204545D01*
X162454621Y-118392599D01*
X163570471Y-118689682D01*
X164621206Y-119095559D01*
X165606359Y-119609997D01*
X166525462Y-120232761D01*
X167378048Y-120963617D01*
X167935491Y-121539919D01*
X168592265Y-122338911D01*
X169141535Y-123158335D01*
X169592047Y-124016696D01*
X169952546Y-124932497D01*
X170231776Y-125924241D01*
X170396012Y-126746000D01*
X170530425Y-127539750D01*
X174196962Y-127556140D01*
X177863500Y-127572531D01*
X177861499Y-127397390D01*
X177852458Y-127283300D01*
X177828355Y-127065072D01*
X177791836Y-126764326D01*
X177745550Y-126402684D01*
X177692145Y-126001768D01*
X177676733Y-125888750D01*
X177616423Y-125444148D01*
X177573142Y-125106930D01*
X177545968Y-124858758D01*
X177533978Y-124681289D01*
X177536251Y-124556185D01*
X177551864Y-124465105D01*
X177579895Y-124389709D01*
X177599359Y-124350056D01*
X177673872Y-124231270D01*
X177810910Y-124036063D01*
X177993325Y-123786913D01*
X178203972Y-123506300D01*
X178425702Y-123216702D01*
X178641370Y-122940601D01*
X178833829Y-122700474D01*
X178985932Y-122518801D01*
X179051238Y-122446637D01*
X179191227Y-122301000D01*
X183832500Y-122301000D01*
X183832500Y-134112000D01*
X178924588Y-134112000D01*
X178264631Y-133462567D01*
X178026106Y-133220595D01*
X177820724Y-132998565D01*
X177666022Y-132816480D01*
X177579535Y-132694339D01*
X177568351Y-132668411D01*
X177568256Y-132563949D01*
X177588949Y-132355823D01*
X177627566Y-132065147D01*
X177681244Y-131713037D01*
X177747120Y-131320605D01*
X177764257Y-131223721D01*
X177838654Y-130790845D01*
X177907228Y-130361266D01*
X177965577Y-129964961D01*
X178009298Y-129631905D01*
X178033988Y-129392074D01*
X178034675Y-129382627D01*
X178072863Y-128841499D01*
X174316931Y-128841499D01*
X173639315Y-128842281D01*
X173000941Y-128844534D01*
X172412866Y-128848116D01*
X171886150Y-128852888D01*
X171431851Y-128858710D01*
X171061029Y-128865441D01*
X170784742Y-128872942D01*
X170614049Y-128881072D01*
X170559760Y-128889125D01*
X170544768Y-129067781D01*
X170509875Y-129336918D01*
X170460667Y-129662602D01*
X170402733Y-130010896D01*
X170341661Y-130347867D01*
X170283038Y-130639580D01*
X170243238Y-130811399D01*
X169914527Y-131848116D01*
X169468735Y-132853700D01*
X168914760Y-133813100D01*
X168261496Y-134711265D01*
X167517842Y-135533144D01*
X167364136Y-135682214D01*
X166521898Y-136399559D01*
X165613963Y-137019078D01*
X164652741Y-137534926D01*
X163650641Y-137941260D01*
X162620073Y-138232239D01*
X161591625Y-138400143D01*
X161163000Y-138444795D01*
X161163000Y-145873267D01*
X161305875Y-145841265D01*
X161408643Y-145822886D01*
X161616841Y-145789244D01*
X161910241Y-145743477D01*
X162268611Y-145688725D01*
X162671723Y-145628126D01*
X162859406Y-145600219D01*
X164270062Y-145391175D01*
X164669156Y-145702042D01*
X164883097Y-145867994D01*
X165160153Y-146081918D01*
X165462530Y-146314673D01*
X165719125Y-146511605D01*
X166370000Y-147010300D01*
X166370000Y-151765000D01*
X163512500Y-151765000D01*
X163512500Y-146367500D01*
X155162250Y-146365584D01*
X155684994Y-145851374D01*
X155921591Y-145623864D01*
X156090821Y-145476472D01*
X156211367Y-145395913D01*
X156301916Y-145368904D01*
X156355967Y-145374367D01*
X156571535Y-145422082D01*
X156883871Y-145482871D01*
X157265365Y-145552154D01*
X157688408Y-145625351D01*
X158125392Y-145697881D01*
X158548708Y-145765165D01*
X158930746Y-145822621D01*
X159243898Y-145865671D01*
X159460554Y-145889733D01*
X159464375Y-145890042D01*
X160020000Y-145934400D01*
X160020000Y-138366500D01*
X159772310Y-138366500D01*
X159501889Y-138348865D01*
X159143057Y-138300313D01*
X158728753Y-138227371D01*
X158291920Y-138136566D01*
X157865499Y-138034426D01*
X157482432Y-137927479D01*
X157359451Y-137888384D01*
X156312769Y-137475441D01*
X155325018Y-136950380D01*
X154399635Y-136315316D01*
X153540056Y-135572366D01*
X153442692Y-135477250D01*
X152665834Y-134625775D01*
X152004518Y-133722186D01*
X151457432Y-132763859D01*
X151023263Y-131748171D01*
X150700699Y-130672500D01*
X150495739Y-129587625D01*
X150418382Y-129031999D01*
X146707313Y-129032000D01*
X142996245Y-129032000D01*
X143031499Y-129238375D01*
X143051330Y-129363165D01*
X143086093Y-129590945D01*
X143132385Y-129899035D01*
X143186801Y-130264756D01*
X143245938Y-130665426D01*
X143256826Y-130739547D01*
X143321186Y-131186740D01*
X143366301Y-131526273D01*
X143393463Y-131775816D01*
X143403964Y-131953039D01*
X143399096Y-132075610D01*
X143380152Y-132161198D01*
X143363632Y-132200047D01*
X143295813Y-132307120D01*
X143165119Y-132491218D01*
X142988340Y-132730461D01*
X142782265Y-133002966D01*
X142563683Y-133286853D01*
X142349384Y-133560239D01*
X142156156Y-133801243D01*
X142000789Y-133987983D01*
X141933191Y-134064375D01*
X141771739Y-134239000D01*
X136271000Y-134239000D01*
X136258300Y-128587500D01*
X136256379Y-127745902D01*
X136254476Y-126936917D01*
X136252617Y-126170068D01*
X136250826Y-125454880D01*
X136249131Y-124800878D01*
X136247555Y-124217586D01*
X136246126Y-123714530D01*
X136244868Y-123301233D01*
X136243808Y-122987220D01*
X136242971Y-122782016D01*
X136242425Y-122697875D01*
X136239250Y-122459750D01*
X141931082Y-122426686D01*
X142599179Y-123046468D01*
X142846849Y-123281837D01*
X143065260Y-123499847D01*
X143234730Y-123680086D01*
X143335576Y-123802139D01*
X143349843Y-123825000D01*
X143384249Y-123915917D01*
X143393697Y-124029763D01*
X143376030Y-124194462D01*
X143329089Y-124437941D01*
X143288108Y-124624010D01*
X143177142Y-125174415D01*
X143072852Y-125799361D01*
X142983019Y-126446396D01*
X142915422Y-127063066D01*
X142900338Y-127238125D01*
X142858601Y-127762000D01*
X146615293Y-127762000D01*
X147433435Y-127761467D01*
X148132531Y-127759758D01*
X148720534Y-127756705D01*
X149205395Y-127752141D01*
X149595063Y-127745900D01*
X149897491Y-127737814D01*
X150120630Y-127727717D01*
X150272430Y-127715441D01*
X150360843Y-127700819D01*
X150393820Y-127683685D01*
X150394195Y-127682625D01*
X150410583Y-127588471D01*
X150436639Y-127399618D01*
X150468159Y-127147606D01*
X150483836Y-127014137D01*
X153607329Y-127014137D01*
X153640660Y-127354802D01*
X153745006Y-127696086D01*
X153926499Y-128065861D01*
X154191274Y-128492000D01*
X154246591Y-128574390D01*
X154549482Y-129008562D01*
X154863305Y-129429724D01*
X155205427Y-129859213D01*
X155593214Y-130318365D01*
X156044033Y-130828518D01*
X156402152Y-131222750D01*
X156697279Y-131539480D01*
X157034643Y-131892464D01*
X157403878Y-132271636D01*
X157794623Y-132666932D01*
X158196512Y-133068284D01*
X158599181Y-133465629D01*
X158992267Y-133848900D01*
X159365405Y-134208032D01*
X159708232Y-134532959D01*
X160010383Y-134813617D01*
X160261495Y-135039939D01*
X160451204Y-135201860D01*
X160569144Y-135289315D01*
X160602003Y-135301623D01*
X160657394Y-135255864D01*
X160792962Y-135133960D01*
X160996639Y-134947057D01*
X161256357Y-134706304D01*
X161560048Y-134422847D01*
X161895643Y-134107833D01*
X161958656Y-134048500D01*
X162783658Y-133257650D01*
X163562076Y-132484239D01*
X164287592Y-131735478D01*
X164953890Y-131018579D01*
X165554649Y-130340754D01*
X166083554Y-129709215D01*
X166534286Y-129131176D01*
X166900528Y-128613846D01*
X167175961Y-128164440D01*
X167267956Y-127987608D01*
X167392290Y-127717958D01*
X167466084Y-127509860D01*
X167501821Y-127314608D01*
X167511983Y-127083495D01*
X167512061Y-127035108D01*
X167452406Y-126369022D01*
X167281394Y-125751525D01*
X167006635Y-125192598D01*
X166635739Y-124702220D01*
X166176314Y-124290369D01*
X165635972Y-123967023D01*
X165022322Y-123742164D01*
X164995584Y-123735159D01*
X164635076Y-123671918D01*
X164202962Y-123641092D01*
X163749940Y-123642798D01*
X163326707Y-123677150D01*
X163033716Y-123730704D01*
X162507315Y-123900396D01*
X162034383Y-124135360D01*
X161584236Y-124454044D01*
X161126196Y-124874893D01*
X161119721Y-124881457D01*
X160536692Y-125473106D01*
X160300564Y-125151435D01*
X159858739Y-124654436D01*
X159335484Y-124249496D01*
X158742318Y-123942134D01*
X158090763Y-123737872D01*
X157392339Y-123642228D01*
X157136467Y-123635438D01*
X156427289Y-123689964D01*
X155787400Y-123849247D01*
X155220517Y-124110465D01*
X154730352Y-124470798D01*
X154320620Y-124927426D01*
X153995036Y-125477526D01*
X153757313Y-126118279D01*
X153729172Y-126223168D01*
X153638878Y-126646217D01*
X153607329Y-127014137D01*
X150483836Y-127014137D01*
X150488241Y-126976645D01*
X150674537Y-125905065D01*
X150983692Y-124853544D01*
X151411975Y-123831975D01*
X151955651Y-122850247D01*
X152168867Y-122523250D01*
X152445450Y-122154236D01*
X152800556Y-121738544D01*
X153208390Y-121301930D01*
X153643156Y-120870148D01*
X154079057Y-120468954D01*
X154490298Y-120124103D01*
X154802958Y-119893324D01*
X155557149Y-119431349D01*
X156361854Y-119025469D01*
X157166235Y-118700823D01*
X157319744Y-118648789D01*
X157678770Y-118540694D01*
X158079877Y-118435496D01*
X158492251Y-118339770D01*
X158885079Y-118260091D01*
X159227548Y-118203036D01*
X159488846Y-118175180D01*
X159546973Y-118173500D01*
X159766000Y-118173500D01*
X159766000Y-114490500D01*
X159765822Y-113713089D01*
X159765098Y-113053107D01*
X159763539Y-112500980D01*
X159760855Y-112047136D01*
X159756759Y-111682003D01*
X159750962Y-111396009D01*
X159743175Y-111179581D01*
X159733109Y-111023148D01*
X159720476Y-110917138D01*
X159704987Y-110851977D01*
X159686354Y-110818095D01*
X159664288Y-110805918D01*
X159654875Y-110804989D01*
X159561552Y-110811869D01*
X159361968Y-110832530D01*
X159075847Y-110864727D01*
X158722912Y-110906215D01*
X158322886Y-110954746D01*
X158130975Y-110978508D01*
X157667533Y-111035387D01*
X157312972Y-111076151D01*
X157050316Y-111101686D01*
X156862591Y-111112880D01*
X156732819Y-111110621D01*
X156644027Y-111095794D01*
X156579237Y-111069286D01*
X156563905Y-111060393D01*
X156465084Y-110992067D01*
X156285357Y-110860109D01*
X156043988Y-110678963D01*
X155760236Y-110463074D01*
X155484304Y-110250821D01*
X154559000Y-109535393D01*
X154559000Y-104711500D01*
X166243000Y-104711500D01*
X166243000Y-107159403D01*
G36*
X152589527Y-108632625D02*
X152588618Y-109327731D01*
X152586331Y-109985670D01*
X152582799Y-110595369D01*
X152578153Y-111145754D01*
X152572527Y-111625752D01*
X152566051Y-112024289D01*
X152558858Y-112330292D01*
X152551080Y-112532688D01*
X152542850Y-112620403D01*
X152541902Y-112622606D01*
X152471493Y-112678979D01*
X152313061Y-112783029D01*
X152089399Y-112920399D01*
X151823302Y-113076731D01*
X151796750Y-113091987D01*
X150517011Y-113897335D01*
X149323192Y-114796070D01*
X148216801Y-115786692D01*
X147199346Y-116867699D01*
X146272337Y-118037590D01*
X145437281Y-119294864D01*
X145256129Y-119600121D01*
X145030837Y-119971425D01*
X144852750Y-120227719D01*
X144720245Y-120371228D01*
X144671323Y-120401104D01*
X144570322Y-120415441D01*
X144359677Y-120427486D01*
X144056729Y-120436871D01*
X143678818Y-120443227D01*
X143243285Y-120446185D01*
X142767472Y-120445377D01*
X142632741Y-120444452D01*
X142077282Y-120440032D01*
X141430489Y-120434906D01*
X140728022Y-120429356D01*
X140005542Y-120423664D01*
X139298712Y-120418110D01*
X138643192Y-120412977D01*
X138493500Y-120411807D01*
X136239250Y-120394210D01*
X136214687Y-113583157D01*
X136190126Y-106772104D01*
X138232414Y-104711500D01*
X152590500Y-104711500D01*
X152589527Y-108632625D01*
X152589527Y-108632625D01*
G37*
X152589527Y-108632625D02*
X152588618Y-109327731D01*
X152586331Y-109985670D01*
X152582799Y-110595369D01*
X152578153Y-111145754D01*
X152572527Y-111625752D01*
X152566051Y-112024289D01*
X152558858Y-112330292D01*
X152551080Y-112532688D01*
X152542850Y-112620403D01*
X152541902Y-112622606D01*
X152471493Y-112678979D01*
X152313061Y-112783029D01*
X152089399Y-112920399D01*
X151823302Y-113076731D01*
X151796750Y-113091987D01*
X150517011Y-113897335D01*
X149323192Y-114796070D01*
X148216801Y-115786692D01*
X147199346Y-116867699D01*
X146272337Y-118037590D01*
X145437281Y-119294864D01*
X145256129Y-119600121D01*
X145030837Y-119971425D01*
X144852750Y-120227719D01*
X144720245Y-120371228D01*
X144671323Y-120401104D01*
X144570322Y-120415441D01*
X144359677Y-120427486D01*
X144056729Y-120436871D01*
X143678818Y-120443227D01*
X143243285Y-120446185D01*
X142767472Y-120445377D01*
X142632741Y-120444452D01*
X142077282Y-120440032D01*
X141430489Y-120434906D01*
X140728022Y-120429356D01*
X140005542Y-120423664D01*
X139298712Y-120418110D01*
X138643192Y-120412977D01*
X138493500Y-120411807D01*
X136239250Y-120394210D01*
X136214687Y-113583157D01*
X136190126Y-106772104D01*
X138232414Y-104711500D01*
X152590500Y-104711500D01*
X152589527Y-108632625D01*
G36*
X182642501Y-105902735D02*
X183832500Y-107093971D01*
X183832500Y-120396000D01*
X179974875Y-120395027D01*
X179285516Y-120394105D01*
X178633385Y-120391783D01*
X178029649Y-120388197D01*
X177485476Y-120383483D01*
X177012036Y-120377776D01*
X176620496Y-120371211D01*
X176322025Y-120363924D01*
X176127792Y-120356051D01*
X176048964Y-120347726D01*
X176048393Y-120347402D01*
X175992020Y-120276993D01*
X175887970Y-120118561D01*
X175750600Y-119894899D01*
X175594268Y-119628802D01*
X175579012Y-119602250D01*
X174777505Y-118328705D01*
X173880680Y-117134896D01*
X172893697Y-116026005D01*
X171821716Y-115007213D01*
X170669898Y-114083700D01*
X169443402Y-113260649D01*
X169005250Y-113001732D01*
X168744447Y-112847956D01*
X168520635Y-112707097D01*
X168359678Y-112595995D01*
X168290875Y-112536610D01*
X168273643Y-112486831D01*
X168258893Y-112380074D01*
X168246471Y-112208526D01*
X168236217Y-111964373D01*
X168227977Y-111639800D01*
X168221594Y-111226994D01*
X168216912Y-110718140D01*
X168213773Y-110105424D01*
X168212021Y-109381032D01*
X168211500Y-108572863D01*
X168211500Y-104711500D01*
X181452503Y-104711500D01*
X182642501Y-105902735D01*
X182642501Y-105902735D01*
G37*
X182642501Y-105902735D02*
X183832500Y-107093971D01*
X183832500Y-120396000D01*
X179974875Y-120395027D01*
X179285516Y-120394105D01*
X178633385Y-120391783D01*
X178029649Y-120388197D01*
X177485476Y-120383483D01*
X177012036Y-120377776D01*
X176620496Y-120371211D01*
X176322025Y-120363924D01*
X176127792Y-120356051D01*
X176048964Y-120347726D01*
X176048393Y-120347402D01*
X175992020Y-120276993D01*
X175887970Y-120118561D01*
X175750600Y-119894899D01*
X175594268Y-119628802D01*
X175579012Y-119602250D01*
X174777505Y-118328705D01*
X173880680Y-117134896D01*
X172893697Y-116026005D01*
X171821716Y-115007213D01*
X170669898Y-114083700D01*
X169443402Y-113260649D01*
X169005250Y-113001732D01*
X168744447Y-112847956D01*
X168520635Y-112707097D01*
X168359678Y-112595995D01*
X168290875Y-112536610D01*
X168273643Y-112486831D01*
X168258893Y-112380074D01*
X168246471Y-112208526D01*
X168236217Y-111964373D01*
X168227977Y-111639800D01*
X168221594Y-111226994D01*
X168216912Y-110718140D01*
X168213773Y-110105424D01*
X168212021Y-109381032D01*
X168211500Y-108572863D01*
X168211500Y-104711500D01*
X181452503Y-104711500D01*
X182642501Y-105902735D01*
D10*
G36*
X142237208Y-145415000D02*
X143510000Y-144142208D01*
X144782792Y-145415000D01*
X143510000Y-146687792D01*
X142237208Y-145415000D01*
X142237208Y-145415000D01*
G37*
D12*
X145306051Y-147211051D03*
D13*
X149225000Y-150495000D03*
D14*
X141605000Y-150495000D03*
D15*
X161290000Y-148510000D03*
D16*
X161290000Y-151050000D03*
X158750000Y-148510000D03*
X158750000Y-151050000D03*
D17*
X141605000Y-150495000D02*
X141605000Y-147320000D01*
X141605000Y-147320000D02*
X143510000Y-145415000D01*
X158750000Y-148510000D02*
X146605000Y-148510000D01*
X146605000Y-148510000D02*
X145306051Y-147211051D01*
X158750000Y-151050000D02*
X149780000Y-151050000D01*
X149780000Y-151050000D02*
X149225000Y-150495000D01*
M02*
